<svg xmlns="http://www.w3.org/2000/svg" viewBox="0 0 120 132" width="120" height="132" role="img" aria-label="Datung">
  <path d="M8 96 A 38 34 0 0 0 74 108" fill="none" stroke="#22C55E" stroke-width="13" stroke-linecap="round"/>
  <circle cx="30" cy="118" r="3.6" fill="#ffffff"/>
  <path d="M90 68 L101 14 q1 -4 4 -3 q3 1 2 5 L96 70 q-1 4 -4 3 q-3 -1 -2 -5 Z" fill="#2ED477"/>
  <path d="M106 64 L112 32 q1 -4 4 -3 q3 1 2 5 L108 65 q-1 4 -3 3 q-3 -1 -1 -4 Z" fill="#2ED477"/>
  <path d="M66 104 L66 33 C66 15 76 5 88 12 C84 33 83 54 83 70 L83 104 Z" fill="#0E4D45"/>
  <path fill-rule="evenodd" d="M40 52 a34 34 0 1 0 0 68 a34 34 0 1 0 0 -68 Z M40 71 a15 15 0 1 0 0 30 a15 15 0 1 0 0 -30 Z" fill="#0E4D45"/>
  <path d="M12 74 L40 86" fill="none" stroke="#ffffff" stroke-width="7" stroke-linecap="round"/>
</svg>
